<?xml version="1.0" encoding="iso-8859-1"?>
<!-- Generator: Adobe Illustrator 19.0.0, SVG Export Plug-In . SVG Version: 6.00 Build 0)  -->
<svg version="1.1" id="Layer_1" xmlns="http://www.w3.org/2000/svg" xmlns:xlink="http://www.w3.org/1999/xlink" x="0px" y="0px"
	 viewBox="0 0 511.999 511.999" style="enable-background:new 0 0 511.999 511.999;" xml:space="preserve">
<path style="fill:#CCCCCC;" d="M322.497,42.572l1.811,129.086h-21.042H296l1.811-129.086c0.1-6.744,5.599-12.165,12.343-12.165
	S322.397,35.828,322.497,42.572z"/>
<g>
	<polygon style="fill:#F95428;" points="415.743,134.54 403.133,171.658 348.572,171.658 366.826,117.931 	"/>
	<path style="fill:#F95428;" d="M415.943,53.649c13.51,4.588,20.742,19.265,16.154,32.774l-16.354,48.117l-48.917-16.609v-0.011
		l16.354-48.117C387.768,56.293,402.444,49.06,415.943,53.649z"/>
</g>
<path style="fill:#CCCCCC;" d="M221.675,74.035c-13.165,0-26.33-2.677-38.674-8.01h-0.011l18.154-27.064
	c5.877,3.955,12.932,6.255,20.531,6.255c7.61,0,14.676-2.311,20.542-6.255l18.142,27.064h-0.011
	C248.005,71.358,234.84,74.035,221.675,74.035z"/>
<g>
	<path style="fill:#F7B239;" d="M221.675,8.331l20.542,30.63c-5.866,3.944-12.932,6.255-20.542,6.255
		c-7.599,0-14.654-2.3-20.531-6.255L221.675,8.331z"/>
	<path style="fill:#F7B239;" d="M260.359,66.025v105.633h-38.685V74.035c13.165,0,26.33-2.677,38.674-8.01H260.359z"/>
	<path style="fill:#F7B239;" d="M221.675,74.035v97.623h-17.898H182.99V66.025h0.011C195.344,71.358,208.509,74.035,221.675,74.035z
		"/>
</g>
<path style="fill:#2BA5F7;" d="M164.325,397.967v31.097h-40.551c-24.986,0-45.251-20.264-45.251-45.251V261.67
	c0-24.986,20.264-45.24,45.251-45.24h40.551v31.086h-37.551c-9.477,0-17.154,7.677-17.154,17.154v116.143
	c0,9.477,7.677,17.154,17.154,17.154L164.325,397.967L164.325,397.967z"/>
<g>
	<path style="fill:#F95428;" d="M291.545,337.662c9.777,0,17.698,7.921,17.698,17.698c0,9.766-7.921,17.687-17.698,17.687
		c-9.766,0-17.687-7.921-17.687-17.687C273.858,345.584,281.779,337.662,291.545,337.662z"/>
	<path style="fill:#F95428;" d="M303.266,172.058v103.033c0,9.166-7.421,16.587-16.587,16.587c-4.577,0-8.721-1.855-11.721-4.855
		c-3-3-4.855-7.155-4.855-11.732V248.25c0-9.155-7.421-16.576-16.576-16.576c-4.588,0-8.732,1.855-11.732,4.855
		c-3,3-4.855,7.144-4.855,11.721v52.05c0,9.155-7.421,16.576-16.576,16.576c-4.577,0-8.721-1.855-11.732-4.855
		c-3-3-4.855-7.144-4.855-11.721V171.658h17.898h38.685H296l-0.011,0.4L303.266,172.058L303.266,172.058z"/>
</g>
<path style="fill:#2BA5F7;" d="M419.864,171.658v292.068c0,22.053-17.887,39.94-39.951,39.94H204.266
	c-22.053,0-39.94-17.887-39.94-39.94v-34.663v-31.097v-150.45v-31.086v-44.773h18.665h20.787V300.3
	c0,4.577,1.855,8.721,4.855,11.721c3.011,3,7.155,4.855,11.732,4.855c9.155,0,16.576-7.421,16.576-16.576v-52.05
	c0-4.577,1.855-8.721,4.855-11.721c3-3,7.144-4.855,11.732-4.855c9.155,0,16.576,7.421,16.576,16.576v26.842
	c0,4.577,1.855,8.732,4.855,11.732c3,3,7.144,4.855,11.721,4.855c9.166,0,16.587-7.421,16.587-16.587V172.058h21.053l-0.011-0.4
	h24.264h54.561L419.864,171.658L419.864,171.658z M309.243,355.36c0-9.777-7.921-17.698-17.698-17.698
	c-9.766,0-17.687,7.921-17.687,17.698c0,9.766,7.921,17.687,17.687,17.687C301.322,373.047,309.243,365.126,309.243,355.36z"/>
<g>
	<path style="fill:#333333;" d="M291.546,329.332c-14.35,0-26.025,11.675-26.025,26.025c0,14.351,11.675,26.026,26.025,26.026
		c14.351,0,26.026-11.675,26.026-26.026C317.572,341.006,305.897,329.332,291.546,329.332z M291.546,364.718
		c-5.162,0-9.36-4.2-9.36-9.361c0-5.162,4.198-9.36,9.36-9.36s9.361,4.2,9.361,9.36
		C300.907,360.518,296.709,364.718,291.546,364.718z"/>
	<path style="fill:#333333;" d="M426.185,49.424l3.547-10.443c1.48-4.357-0.852-9.089-5.208-10.57
		c-4.353-1.48-9.09,0.851-10.571,5.209l-3.543,10.428c-6.099-0.508-12.244,0.645-17.877,3.422
		c-8.186,4.036-14.311,11.017-17.244,19.656l-32.688,96.204h-10.072L330.826,42.46c-0.158-11.239-9.429-20.383-20.67-20.383
		c-11.239,0-20.513,9.143-20.671,20.382l-1.703,120.87h-19.087V66.029c0-1.653-0.491-3.267-1.412-4.641L228.598,3.693
		C227.051,1.385,224.457,0,221.678,0s-5.374,1.385-6.92,3.693l-38.682,57.696c-0.92,1.373-1.412,2.987-1.412,4.641v97.299h-20.344
		c-4.603,0-8.332,3.731-8.332,8.332s3.73,8.332,8.332,8.332h1.676v28.1h-32.216c-29.546,0-53.582,24.036-53.582,53.582v122.133
		c0,29.546,24.037,53.582,53.582,53.582h32.216v26.332c0,26.619,21.657,48.276,48.276,48.276h175.645
		c26.619,0,48.276-21.657,48.276-48.276V179.994h1.677c4.603,0,8.332-3.731,8.332-8.332s-3.73-8.332-8.332-8.332h-15.104
		l25.221-74.222C445.118,73.99,439.018,57.724,426.185,49.424z M155.994,389.639h-29.218c-4.868,0-8.828-3.96-8.828-8.828V264.675
		c0-4.867,3.96-8.828,8.828-8.828h29.218V389.639z M155.994,239.182h-29.218c-14.056,0-25.493,11.435-25.493,25.493v116.136
		c0,14.056,11.437,25.493,25.493,25.493h29.218v14.423h-32.217c-20.357,0-36.917-16.56-36.917-36.917V261.676
		c0-20.357,16.56-36.917,36.917-36.917h32.217V239.182z M372.037,128.496l33.136,11.259l-8.01,23.574h-36.96L372.037,128.496z
		 M306.147,42.694c0.031-2.18,1.829-3.953,4.008-3.953s3.977,1.772,4.007,3.952l1.7,120.636h-11.417L306.147,42.694z
		 M293.477,179.994c0.472,0.15,0.959,0.252,1.454,0.316v94.785c0,4.548-3.7,8.248-8.248,8.248c-4.548,0-8.248-3.7-8.248-8.248
		v-26.847c0-13.737-11.177-24.913-24.913-24.913c-13.736,0-24.913,11.175-24.913,24.913v52.048c0,4.548-3.701,8.248-8.249,8.248
		s-8.248-3.7-8.248-8.248V179.994H293.477z M252.028,163.329H230.01V82.002c7.437-0.583,14.822-1.955,22.018-4.103L252.028,163.329
		L252.028,163.329z M221.678,23.296l8.287,12.361c-2.663,0.808-5.449,1.224-8.286,1.224c-2.84,0-5.626-0.416-8.289-1.223
		L221.678,23.296z M203.866,49.863c5.589,2.405,11.621,3.682,17.814,3.682c6.188,0,12.22-1.278,17.81-3.683l8.031,11.979
		c-16.816,5.082-34.871,5.082-51.688,0L203.866,49.863z M191.327,77.899c7.196,2.149,14.58,3.52,22.018,4.103v81.326h-22.018
		L191.327,77.899L191.327,77.899z M411.526,463.723c0,17.43-14.181,31.611-31.611,31.611H204.271
		c-17.43,0-31.611-14.181-31.611-31.611V179.994h22.789v120.303c0,13.737,11.177,24.913,24.914,24.913
		c13.736,0,24.913-11.175,24.913-24.913v-52.048c0-4.548,3.7-8.248,8.248-8.248s8.248,3.7,8.248,8.248v26.847
		c0,13.737,11.177,24.913,24.913,24.913s24.913-11.175,24.913-24.913v-94.71l99.931-0.392v283.729H411.526z M424.205,83.746
		l-13.67,40.23l-33.136-11.259l13.668-40.231c1.504-4.426,4.641-8.002,8.835-10.069c4.192-2.068,8.937-2.378,13.357-0.874
		C422.4,64.646,427.308,74.607,424.205,83.746z"/>
</g>
<g>
</g>
<g>
</g>
<g>
</g>
<g>
</g>
<g>
</g>
<g>
</g>
<g>
</g>
<g>
</g>
<g>
</g>
<g>
</g>
<g>
</g>
<g>
</g>
<g>
</g>
<g>
</g>
<g>
</g>
</svg>
